# xmcd
#
# Track frame offsets:
#	150
#	14498
#	31248
#	46084
#	62683
#	78048
#	91328
#	105153
#	123180
#	141885
#	158746
#	172130
#	187620
#	203813
#
# Disc length: 2893 seconds
#
# Revision: 1
# Processed by: cddbd v1.5.2PL0 Copyright (c) Steve Scherf et al.
# Submitted via: audiograbber 1.83.01
#
DISCID=a10b4b0e
DTITLE=Various Artist - CDX 15
DYEAR=1991
DGENRE=Country
TTITLE0=Jo-El Sonnier - All American Saturday Night
TTITLE1=Kathy Mattea - Asking Us To Dance
TTITLE2=Dolly Parton - Eagle When She Flies
TTITLE3=Reba McEntire - For My Broken Heart
TTITLE4=Ray Benson - Four Scores And Seven Beers Ago
TTITLE5=Dawn Sears - Good Goodbye
TTITLE6=The Texas Tornados - Is Anybody Goin To San Antone
TTITLE7=Steve Wariner - Leave Him Out Of This
TTITLE8=Exile - Nothing At All
TTITLE9=Martin Delray - One In A Row
TTITLE10=Mark Collie - She's Never Comin Back
TTITLE11=Ray Stevens - Teenage Mutant Kung Fu Chicken
TTITLE12=Waylon and Willie - Tryin' To Outrun The Wind
TTITLE13=Tanya Tucker - (Without You) What Do I Do With Me
EXTD=
EXTT0=
EXTT1=
EXTT2=
EXTT3=
EXTT4=
EXTT5=
EXTT6=
EXTT7=
EXTT8=
EXTT9=
EXTT10=
EXTT11=
EXTT12=
EXTT13=
PLAYORDER=
